<?xml version="1.0" encoding="UTF-8"?><svg id="uuid-9736bcc8-2601-433f-b5fa-371779f99a6c" xmlns="http://www.w3.org/2000/svg" width="200" height="200" viewBox="0 0 200 200"><defs><style>.uuid-ae74435d-08ec-4152-8385-b8d5021d8172{fill:#333;}</style></defs><path class="uuid-ae74435d-08ec-4152-8385-b8d5021d8172" d="M121.4286,100L195.7143,25.7143c5.7143-5.7143,5.7143-15.7143,0-21.4286-5.7143-5.7143-15.7143-5.7143-21.4286,0l-74.2857,74.2857L25.7143,4.2857C20-1.4286,10-1.4286,4.2857,4.2857c-5.7143,5.7143-5.7143,15.7143,0,21.4286l74.2857,74.2857L4.2857,174.2857c-5.7143,5.7143-5.7143,15.7143,0,21.4286,5.7143,5.7143,15.7143,5.7143,21.4286,0l74.2857-74.2857,74.2857,74.2857c5.7143,5.7143,15.7143,5.7143,21.4286,0,5.7143-5.7143,5.7143-15.7143,0-21.4286l-74.2857-74.2857Z"/></svg>