<?xml version="1.0" encoding="UTF-8"?><svg id="uuid-a66c4f26-f04c-498e-824e-0c3ac7368080" xmlns="http://www.w3.org/2000/svg" width="200" height="200" viewBox="0 0 200 200"><defs><style>.uuid-c4a97a15-489c-4be2-a577-cbf1b036f53e{fill:#333;}</style></defs><path class="uuid-c4a97a15-489c-4be2-a577-cbf1b036f53e" d="M164.375,107.5h-41.875c-9.375,0-16.875,7.5-16.875,16.875v41.875c0,9.375,7.5,16.875,16.875,16.875h41.875c9.375,0,16.875-7.5,16.875-16.875v-41.875c0-9.375-7.5-16.875-16.875-16.875ZM169.375,166.25c0,2.5-1.875,4.375-4.375,4.375h-41.875c-2.5,0-4.375-1.875-4.375-4.375v-41.875c0-2.5,1.875-4.375,4.375-4.375h41.875c2.5,0,4.375,1.875,4.375,4.375v41.875ZM77.5,107.5h-41.875c-9.375,0-16.875,7.5-16.875,16.875v41.875c0,9.375,7.5,16.875,16.875,16.875h41.25c9.375,0,16.875-7.5,17.5-16.875v-41.875c0-9.375-7.5-16.875-16.875-16.875ZM81.875,166.25c0,2.5-1.875,4.375-4.375,4.375h-41.875c-2.5,0-4.375-1.875-4.375-4.375v-41.875c0-2.5,1.875-4.375,4.375-4.375h41.875c2.5,0,4.375,1.875,4.375,4.375v41.875ZM77.5,20h-41.875c-9.375,0-16.875,7.5-16.875,16.875v41.875c0,9.375,7.5,16.875,16.875,16.875h41.25c9.375,0,16.875-7.5,17.5-16.875v-41.875c0-9.375-7.5-16.875-16.875-16.875ZM81.875,78.75c0,2.5-1.875,4.375-4.375,4.375h-41.875c-2.5,0-4.375-1.875-4.375-4.375v-41.875c0-2.5,1.875-4.375,4.375-4.375h41.875c2.5,0,4.375,1.875,4.375,4.375v41.875ZM165,20h-41.875c-9.375,0-16.875,7.5-16.875,16.875v41.875c0,9.375,7.5,16.875,16.875,16.875h41.25c9.375,0,16.875-7.5,17.5-16.875v-41.875c0-9.375-7.5-16.875-16.875-16.875ZM169.375,78.75c0,2.5-1.875,4.375-4.375,4.375h-41.875c-2.5,0-4.375-1.875-4.375-4.375v-41.875c0-2.5,1.875-4.375,4.375-4.375h41.875c2.5,0,4.375,1.875,4.375,4.375v41.875Z"/></svg>