<?xml version="1.0" encoding="UTF-8"?><svg id="uuid-ac8ab95d-0c8f-4d27-8254-8ab059a0b5ff" xmlns="http://www.w3.org/2000/svg" width="200" height="200" viewBox="0 0 200 200"><defs><style>.uuid-e77fb1cf-035b-4ad4-b89d-b84ec5c80f24{fill:#333;}</style></defs><path class="uuid-e77fb1cf-035b-4ad4-b89d-b84ec5c80f24" d="M175.0042,49.9916h-56.2741c-3.4604,0-6.249-2.7885-6.249-6.249s2.7885-6.249,6.249-6.249h56.2405c3.4604,0,6.249,2.7885,6.249,6.249.0336,3.4604-2.7549,6.249-6.2154,6.249ZM175.0042,81.2364h-56.2741c-3.4604,0-6.249-2.7885-6.249-6.249s2.7885-6.249,6.249-6.249h56.2405c3.4604,0,6.249,2.7885,6.249,6.249s-2.7549,6.249-6.2154,6.249ZM175.0042,131.2616h-56.2741c-3.4604,0-6.249-2.7885-6.249-6.249s2.7885-6.249,6.249-6.249h56.2405c3.4604,0,6.249,2.7885,6.249,6.249s-2.7549,6.249-6.2154,6.249ZM175.0042,162.5063h-56.2741c-3.4604,0-6.249-2.7885-6.249-6.249s2.7885-6.249,6.249-6.249h56.2405c3.4604,0,6.249,2.7885,6.249,6.249s-2.7549,6.249-6.2154,6.249ZM74.9874,93.7343h-37.4937c-10.3477,0-18.7468-8.3991-18.7468-18.7469v-37.4937c0-10.3477,8.3991-18.7468,18.7468-18.7468h37.4937c10.3477,0,18.7469,8.3991,18.7469,18.7468v37.4937c0,10.3477-8.3991,18.7469-18.7469,18.7469ZM37.4937,31.2448c-3.4268,0-6.249,2.8221-6.249,6.249v37.4937c0,3.4268,2.8221,6.249,6.249,6.249h37.4937c3.4268,0,6.249-2.8221,6.249-6.249v-37.4937c0-3.4268-2.8221-6.249-6.249-6.249,0,0-37.4937,0-37.4937,0ZM74.9874,181.2531h-37.4937c-10.3477,0-18.7468-8.3991-18.7468-18.7469v-37.5273c0-10.3477,8.3991-18.7469,18.7468-18.7469h37.4937c10.3477,0,18.7469,8.3991,18.7469,18.7469v37.4937c0,10.3477-8.3991,18.7804-18.7469,18.7804h0ZM37.4937,118.7301c-3.4268,0-6.249,2.7885-6.249,6.249v37.4937c0,3.4604,2.8221,6.249,6.249,6.249h37.4937c3.4268,0,6.249-2.7885,6.249-6.249v-37.4937c0-3.4604-2.8221-6.249-6.249-6.249,0,0-37.4937,0-37.4937,0Z"/></svg>