<?xml version="1.0" encoding="UTF-8"?><svg id="uuid-29aa89d4-384a-45bd-9e7e-78aa9ae69e3b" xmlns="http://www.w3.org/2000/svg" width="200" height="200" viewBox="0 0 200 200"><defs><style>.uuid-7d587e9d-91f5-4230-ae05-044734dbe5fa{fill:#333;}</style></defs><path class="uuid-7d587e9d-91f5-4230-ae05-044734dbe5fa" d="M175.7955,110.0905c.5396-4.0352-2.2959-7.7431-6.3314-8.2793-4.0336-.5377-7.7431,2.2959-8.2793,6.3314-2.0305,15.2155-9.6307,29.0334-21.399,38.9082-12.5682,10.546-28.4896,15.567-44.8336,14.1371s-31.1516-9.1394-41.6976-21.7076c-10.546-12.5682-15.567-28.4896-14.1371-44.8336s9.1394-31.1516,21.7076-41.6976c12.5682-10.546,28.4896-15.567,44.8336-14.1371,12.5263,1.0959,24.1471,5.8828,33.6409,13.7151l-9.1128,7.6466c-3.2352,2.7147-1.7666,7.9736,2.4058,8.6194l30.3253,4.6917c2.9371.454,5.602-1.7821,5.663-4.7519l.6436-30.6777c.0885-4.2211-4.8355-6.5807-8.0707-3.866l-10.4039,8.7299c-12.1366-10.7717-27.3449-17.3495-43.8066-18.7898-20.2656-1.773-40.0102,4.4516-55.5934,17.5275-15.5832,13.0759-25.1419,31.4396-26.9149,51.7052s4.4516,40.0102,17.5275,55.5934,31.4396,25.1419,51.7052,26.9149,40.0102-4.4516,55.5935-17.5275c14.5933-12.2452,24.0168-29.3826,26.5344-48.2525v.0002Z"/></svg>