<svg xmlns="http://www.w3.org/2000/svg" width="200" height="200" viewBox="0 0 200 200">
  <path fill="#333" fill-rule="evenodd" d="M115,25l3.2812,22.9688,6.0938,2.8125c2.5,1.25,5.1563,2.6563,7.5,4.2188l5.4688,3.5937,22.0312-8.5938,14.8438,24.8438-18.5938,14.2188.625,6.875c.1562,1.4063.1562,2.8125.1562,4.0625s0,2.6562-.1562,4.0625l-.625,6.875,18.5938,14.2187-14.6875,24.8438-22.1875-8.5938-5.4688,3.5938c-2.5,1.7187-5,3.125-7.5,4.2187l-6.0938,2.8125-3.2812,22.9687h-30l-3.2812-22.9688-6.0938-2.8125c-2.5-1.25-5.1562-2.6562-7.5-4.2187l-5.4688-3.5938-22.0313,8.5938-14.8438-24.8438,18.5937-14.2187-.625-6.875c-.1563-1.4063-.1563-2.8125-.1563-4.0625s0-2.6563.1563-4.0625l.625-6.875-18.5937-14.2188,14.6875-24.8437,22.1875,8.5938,5.4688-3.5937c2.5-1.7187,5-3.125,7.5-4.2188l6.0938-2.8125,3.2812-22.9688h30M116.7188,12.5h-33.4375c-5.3125,0-9.6875,3.75-10.4688,8.75l-2.5,18.125c-3.125,1.4062-6.0938,3.125-9.2188,5.1562l-17.6562-6.875c-1.25-.4687-2.5-.625-3.75-.625-3.75,0-7.3437,1.875-9.0625,5.1562l-16.7187,28.125c-2.6562,4.375-1.5625,10.1562,2.5,13.2812l14.8438,11.25c-.1563,1.875-.3125,3.5937-.3125,5.1562s0,3.2812.3125,5.1563l-14.8438,11.25c-4.0625,3.125-5.1563,8.5938-2.5,13.2812l16.5625,27.9688c1.875,3.2812,5.4688,5.3125,9.2187,5.3125,1.25,0,2.3438-.1562,3.5937-.625l17.6563-6.875c2.9688,2.0313,6.0938,3.75,9.2188,5.1563l2.6563,17.9688c.625,5,5.1562,8.9062,10.4688,8.9062h33.4375c5.3125,0,9.6875-3.75,10.4687-8.75l2.6562-18.125c3.125-1.4063,6.0938-3.125,9.2188-5.1563l17.6563,6.875c1.25.4688,2.5.625,3.75.625,3.75,0,7.3437-1.875,9.0625-5.1563l16.7187-28.2812c2.5-4.5313,1.4063-10-2.6562-13.125l-14.8438-11.25c.1562-1.5625.3125-3.2812.3125-5.1563s-.1562-3.5937-.3125-5.1562l14.8438-11.25c4.0625-3.125,5.1563-8.5938,2.5-13.2812l-16.5625-27.9687c-1.875-3.2813-5.4688-5.3125-9.2188-5.3125-1.25,0-2.3438.1563-3.5938.625l-17.6563,6.875c-2.9688-2.0312-6.0938-3.75-9.2188-5.1562l-2.6562-17.9688c-.7812-5.1563-5.1563-8.9062-10.4687-8.9063h0ZM100,62.5 A37.5,37.5 0 1,0 100,137.5 A37.5,37.5 0 1,0 100,62.5 Z M100,75 A25,25 0 1,0 100,125 A25,25 0 1,0 100,75 Z"/>
</svg>