<svg xmlns="http://www.w3.org/2000/svg" viewBox="0 0 200 200" fill="#333"><path fill-rule="evenodd" d="M115 25l3.3 23 6.1 2.8c2.5 1.3 5.2 2.7 7.5 4.2l5.5 3.6 22-8.6 14.8 24.8-18.6 14.2.6 6.9c.2 1.4.2 2.8.2 4.1s0 2.7-.2 4.1l-.6 6.9 18.6 14.2-14.7 24.8-22.2-8.6-5.5 3.6c-2.5 1.7-5 3.1-7.5 4.2l-6.1 2.8-3.3 23H85l-3.3-23-6.1-2.8c-2.5-1.3-5.2-2.7-7.5-4.2l-5.5-3.6-22 8.6-14.8-24.8 18.6-14.2-.6-6.9c-.2-1.4-.2-2.8-.2-4.1s0-2.7.2-4.1l.6-6.9-18.6-14.2 14.7-24.8 22.2 8.6 5.5-3.6c2.5-1.7 5-3.1 7.5-4.2l6.1-2.8L85 25h30m1.7-12.5H83.3c-5.3 0-9.7 3.8-10.5 8.8l-2.5 18.1c-3.1 1.4-6.1 3.1-9.2 5.2l-17.7-6.9c-1.2-.5-2.5-.6-3.7-.6-3.8 0-7.3 1.9-9.1 5.2l-16.7 28.1c-2.7 4.4-1.6 10.2 2.5 13.3l14.8 11.3c-.2 1.9-.3 3.6-.3 5.2s0 3.3.3 5.2l-14.8 11.3c-4.1 3.1-5.2 8.6-2.5 13.3l16.6 28c1.9 3.3 5.5 5.3 9.2 5.3 1.3 0 2.3-.2 3.6-.6l17.7-6.9c3 2 6.1 3.8 9.2 5.2l2.7 18c.6 5 5.2 8.9 10.5 8.9h33.4c5.3 0 9.7-3.8 10.5-8.8l2.7-18.1c3.1-1.4 6.1-3.1 9.2-5.2l17.7 6.9c1.2.5 2.5.6 3.7.6 3.8 0 7.3-1.9 9.1-5.2l16.7-28.3c2.5-4.5 1.4-10-2.7-13.1l-14.8-11.2c.2-1.6.3-3.3.3-5.2s-.2-3.6-.3-5.2l14.8-11.2c4.1-3.1 5.2-8.6 2.5-13.3l-16.6-28c-1.9-3.3-5.5-5.3-9.2-5.3-1.3 0-2.3.2-3.6.6l-17.7 6.9c-3-2-6.1-3.8-9.2-5.2l-2.7-18c-.8-5.2-5.2-8.9-10.5-8.9M100 62.5a37.5 37.5 0 1 0 0 75 37.5 37.5 0 1 0 0-75zm0 12.5a25 25 0 1 0 0 50 25 25 0 1 0 0-50z"/></svg>