<svg xmlns="http://www.w3.org/2000/svg" width="215" height="200" viewBox="0 0 215 200">
  <path fill="#ec7a40" d="M187.6098,199.4113H27.3938c-10.7441,0-19.3754-4.2385-23.6859-11.6313-4.3117-7.3926-3.7871-17.0494,1.4445-26.4856L85.9903,15.4977c5.2619-9.5051,13.0867-14.9533,21.4582-14.9533s16.1895,5.4414,21.4662,14.9381l80.9225,145.8271c5.2305,9.4363,5.7715,19.0859,1.4518,26.4775-4.3037,7.3926-12.942,11.6242-23.6791,11.6242h0ZM107.4565,15.8492c-2.6617,0-5.7107,2.6553-8.1824,7.102L18.4366,168.7631c-2.5328,4.5762-3.1258,8.6865-1.6129,11.2797,1.5143,2.5867,5.3687,4.0723,10.5701,4.0723h160.216c5.2096,0,9.057-1.4775,10.5701-4.0723,1.5047-2.5863.9199-6.6953-1.6197-11.2715L115.6387,22.951c-2.4644-4.4465-5.5285-7.1018-8.1822-7.1018Z"/>
  <line x1="107.5" y1="54" x2="107.5" y2="124" stroke="#ec7a40" stroke-width="15" stroke-linecap="round"/>
  <circle cx="107.5" cy="156" r="12" fill="#ec7a40"/>
</svg>