<svg xmlns="http://www.w3.org/2000/svg" viewBox="0 0 215 200" width="215" height="200">
  <path fill="#ec7a40" d="M187.6 199.4H27.4c-10.7 0-19.4-4.2-23.7-11.6-4.3-7.4-3.8-17 1.4-26.5L86 15.5c5.3-9.5 13.1-15 21.5-15s16.2 5.4 21.5 14.9l80.9 145.8c5.2 9.4 5.8 19.1 1.5 26.5-4.3 7.4-12.9 11.6-23.7 11.6ZM107.5 15.8c-2.7 0-5.7 2.7-8.2 7.1L18.4 168.8c-2.5 4.6-3.1 8.7-1.6 11.3 1.5 2.6 5.4 4.1 10.6 4.1h160.2c5.2 0 9.1-1.5 10.6-4.1 1.5-2.6 0.9-6.7-1.6-11.3L115.6 23c-2.5-4.4-5.5-7.1-8.2-7.1Z"/>
  <line x1="107.5" y1="54" x2="107.5" y2="124" stroke="#ec7a40" stroke-width="15" stroke-linecap="round"/>
  <circle cx="107.5" cy="156" r="12" fill="#ec7a40"/>
</svg>