<svg xmlns="http://www.w3.org/2000/svg" viewBox="0 0 200 200" width="200" height="200">
  <path fill="#515151" d="M93.125,85l36.25-61.875H15c-8.125,0-15,6.875-15,15.625v122.5c0,8.125,6.875,15,15,15l80.8315.0084,29.7935-53.7584-32.5-37.5h0ZM15,35h93.125l-30.625,51.875,30.625,35c-12.5,8.125-22.5,8.125-35.625-1.25-22.5-15-48.125,2.5-61.25,15V38.75c.0084-1.9916,1.875-3.75,3.75-3.75ZM83.125,165H15c-1.875,0-3.75-1.875-3.75-3.75v-13.125c8.125-8.125,35-33.75,56.25-20,12.5,8.125,28.4663,12.7402,43.0281,1.5492l-20.3216,35.3343-7.0815-.0084ZM185,23.125h-41.25l-36.875,58.75,33.125,37.5-30.6517,56.8834,75.6517-.0084c8.125,0,15-6.875,15-15V38.75c0-8.75-6.875-15.625-15-15.625h0ZM150.625,35h34.375c1.875,0,3.75,1.875,3.75,3.75v61.875c-9.375-9.375-19.375-15.625-28.125-16.25-5.625-.625-11.25,1.25-15.625,5l-8.125,8.125-15-16.875,28.75-45.625h0ZM185,165h-56.25l25.3286-47.191-10.9537-13.434,8.75-8.125c2.5-1.875,5-3.125,8.125-2.5,8.75.625,20,9.375,28.75,21.25v46.25c-.0197,1.7275-1.875,3.75-3.75,3.75h0Z"/>
  <circle cx="44.375" cy="68.75" r="14.0625" fill="none" stroke="#515151" stroke-width="9.375"/>
</svg>