<svg xmlns="http://www.w3.org/2000/svg" width="252" height="198" viewBox="0 0 252 198">
  <path fill="#fa4" d="M222.6,53.625c0,13.669-11.2824,24.75-25.2,24.75s-25.2-11.081-25.2-24.75,11.2824-24.75,25.2-24.75,25.2,11.081,25.2,24.75Z"/>
  <path fill="#1a6" d="M91.476,87.615c-11.0428-9.638-27.6811-9.638-38.724,0L9,127.3013v61.6987h83.1633l55.5927-50.4-56.28-50.985Z"/>
  <path fill="#fa4" d="M160.188,127.2975h0s-12.4321,11.3024-12.4321,11.3024l-55.5927,50.4h150.8368v-24.8636l-40.8122-36.8388c-12.0145-10.3562-29.9854-10.3563-41.9998,0Z"/>
  <path fill="#4d4d4d" d="M242.9981,0H9.0019C4.0303,0,0,4.0303,0,9.0019v179.9962c0,4.9716,4.0303,9.0019,9.0019,9.0019h233.9962c4.9716,0,9.0019-4.0303,9.0019-9.0019V9.0019c0-4.9716-4.0303-9.0019-9.0019-9.0019ZM243,189H9V9h234v180Z"/>
</svg>